<svg width="38" height="38" viewBox="0 0 38 38" fill="none" xmlns="http://www.w3.org/2000/svg">
<path d="M3.16663 29.2914V21.3747L13.0804 21.3747C13.8572 21.3747 14.631 21.47 15.3846 21.6583L17.4166 22.1663L17.5398 21.9692C18.7378 20.0526 20.5797 18.6258 22.735 17.9452L26.9166 16.6247V14.9647C26.9166 14.2456 27.1613 13.5479 27.6105 12.9865L30.0833 9.89549L30.3737 10.1351C31.0193 10.6677 31.1388 11.6108 30.6466 12.2877L30.0833 13.0622L31.6666 11.8747L32.4015 10.4049C32.8433 9.52134 33.9774 9.2536 34.7677 9.84632L34.8333 9.89549L34.0416 15.4372L30.0833 17.8122L26.0881 22.6635C25.0735 23.8956 23.7648 24.852 22.2829 25.4448L20.5833 26.1247L19.9275 26.7805C19.3336 27.3744 18.5281 27.708 17.6882 27.708L16.625 27.7081L13.3375 28.8038C12.3688 29.1267 11.3544 29.2914 10.3333 29.2914H3.16663Z" fill="#21C389"/>
</svg>
