<svg width="13" height="24" viewBox="0 0 13 24" fill="none" xmlns="http://www.w3.org/2000/svg">
<path d="M11.1699 24.0002C11.0383 24.0009 10.9078 23.9757 10.786 23.9259C10.6641 23.8762 10.5533 23.8028 10.4599 23.7102L2.28986 15.5402C1.82423 15.0757 1.4548 14.524 1.20274 13.9165C0.950671 13.3091 0.820923 12.6578 0.820923 12.0002C0.820923 11.3425 0.950671 10.6913 1.20274 10.0838C1.4548 9.47639 1.82423 8.92463 2.28986 8.46017L10.4599 0.290185C10.5531 0.196947 10.6638 0.122986 10.7856 0.0725256C10.9074 0.0220653 11.038 -0.00390625 11.1699 -0.00390625C11.3017 -0.00390625 11.4323 0.0220653 11.5541 0.0725256C11.6759 0.122986 11.7866 0.196947 11.8799 0.290185C11.9731 0.383423 12.0471 0.494114 12.0975 0.615935C12.148 0.737757 12.174 0.868325 12.174 1.00018C12.174 1.13204 12.148 1.26261 12.0975 1.38443C12.0471 1.50625 11.9731 1.61694 11.8799 1.71018L3.70986 9.88017C3.14806 10.4427 2.8325 11.2052 2.8325 12.0002C2.8325 12.7952 3.14806 13.5577 3.70986 14.1202L11.8799 22.2902C11.9736 22.3831 12.048 22.4937 12.0988 22.6156C12.1495 22.7374 12.1757 22.8681 12.1757 23.0002C12.1757 23.1322 12.1495 23.2629 12.0988 23.3847C12.048 23.5066 11.9736 23.6172 11.8799 23.7102C11.7864 23.8028 11.6756 23.8762 11.5538 23.9259C11.4319 23.9757 11.3015 24.0009 11.1699 24.0002Z" fill="#595F72"/>
</svg>
