<svg width="18" height="18" viewBox="0 0 18 18" fill="none" xmlns="http://www.w3.org/2000/svg">
<g clip-path="url(#clip0_333_24)">
<path d="M16.9162 10.2463L15.4912 5.11927C15.0735 3.61727 14.1657 2.29798 12.9122 1.37112C11.6586 0.444257 10.1312 -0.0369924 8.57277 0.00386772C7.01431 0.0447278 5.51423 0.605353 4.31097 1.59663C3.10771 2.58791 2.27033 3.95294 1.93193 5.47477L0.828675 10.436C0.706812 10.9842 0.709629 11.5528 0.83692 12.0998C0.96421 12.6467 1.21272 13.1581 1.56411 13.5962C1.9155 14.0342 2.36079 14.3878 2.86711 14.6307C3.37343 14.8737 3.92784 14.9998 4.48943 14.9998H5.32492C5.49706 15.8475 5.95697 16.6096 6.62673 17.1571C7.29649 17.7045 8.13491 18.0035 8.99992 18.0035C9.86494 18.0035 10.7034 17.7045 11.3731 17.1571C12.0429 16.6096 12.5028 15.8475 12.6749 14.9998H13.3034C13.8815 14.9998 14.4518 14.8662 14.9697 14.6093C15.4877 14.3525 15.9392 13.9794 16.289 13.5192C16.6389 13.0589 16.8776 12.5241 16.9865 11.9563C17.0954 11.3885 17.0716 10.8033 16.9169 10.2463H16.9162ZM8.99992 16.4998C8.53623 16.4978 8.08445 16.3527 7.7064 16.0842C7.32835 15.8157 7.04249 15.437 6.88792 14.9998H11.1119C10.9574 15.437 10.6715 15.8157 10.2934 16.0842C9.9154 16.3527 9.46362 16.4978 8.99992 16.4998ZM15.0944 12.611C14.8854 12.8883 14.6147 13.113 14.3036 13.2672C13.9926 13.4215 13.6499 13.5011 13.3027 13.4998H4.48943C4.15251 13.4997 3.81992 13.424 3.51618 13.2782C3.21245 13.1324 2.94533 12.9203 2.73455 12.6574C2.52376 12.3946 2.3747 12.0878 2.29835 11.7597C2.222 11.4315 2.22032 11.0904 2.29343 10.7615L3.39593 5.79952C3.66169 4.60417 4.31941 3.53197 5.26452 2.75335C6.20963 1.97474 7.38789 1.5344 8.61201 1.50233C9.83612 1.47026 11.0358 1.84831 12.0204 2.57637C13.005 3.30443 13.7179 4.34073 14.0459 5.52052L15.4709 10.6475C15.5651 10.9815 15.5801 11.3329 15.5147 11.6738C15.4494 12.0146 15.3055 12.3355 15.0944 12.611Z"/>
</g>
<defs>
<clipPath id="clip0_333_24">
<rect width="18" height="18"/>
</clipPath>
</defs>
</svg>
