<svg width="38" height="38" viewBox="0 0 38 38" fill="none" xmlns="http://www.w3.org/2000/svg">
<path d="M21.2726 17.432H23.852C24.6086 17.4469 25.3546 17.6033 26.0466 17.8919C26.7388 18.1806 27.3633 18.5959 27.884 19.1139C28.4048 19.6318 28.8113 20.242 29.0803 20.9092C29.3492 21.5764 29.475 22.2872 29.4507 23.0006C29.4507 28.6612 24.8619 33.25 19.2013 33.25H18.7056C12.7712 33.25 7.96045 28.4392 7.96045 22.5049V22.2512C7.99557 20.9595 8.56523 19.7321 9.54755 18.8315C10.5299 17.9309 11.8469 17.4286 13.2169 17.432H15.4661V13.9041C14.5745 13.2478 13.9226 12.3451 13.6015 11.3223C13.2804 10.2993 13.3061 9.20748 13.6751 8.19905C14.0441 7.19069 14.7378 6.31621 15.6595 5.69783C16.581 5.07945 17.6845 4.74808 18.8155 4.75001C19.9844 4.75853 21.1198 5.11874 22.0565 5.77817C22.9931 6.4376 23.6821 7.36184 24.0231 8.41629C24.1331 8.80824 24.2554 9.96115 24.2554 9.96115C24.451 10.4569 24.6587 10.9412 24.8666 11.4253L25.1599 12.1287C25.2695 12.3191 25.3438 12.5258 25.38 12.7397C25.3879 12.8818 25.3399 13.0216 25.2451 13.1322C25.1503 13.2429 25.0155 13.3166 24.8666 13.3392C24.8572 13.3392 24.8297 13.3417 24.7913 13.3453L24.7827 13.3461C24.6157 13.3618 24.2676 13.3942 24.2676 13.3392V14.6651C24.2644 15.2012 24.0362 15.7143 23.6331 16.0924C23.23 16.4705 22.6846 16.6826 22.1161 16.6826H21.2726V17.432Z" fill="#21C389"/>
</svg>
