<svg width="14" height="14" viewBox="0 0 14 14" fill="none" xmlns="http://www.w3.org/2000/svg">
<path d="M10.9141 4.78925C10.8599 4.73457 10.7954 4.69118 10.7243 4.66156C10.6532 4.63195 10.5769 4.6167 10.4999 4.6167C10.4229 4.6167 10.3467 4.63195 10.2756 4.66156C10.2045 4.69118 10.14 4.73457 10.0858 4.78925L7.4141 7.46091C7.35987 7.51558 7.29536 7.55898 7.22427 7.5886C7.15319 7.61821 7.07694 7.63346 6.99993 7.63346C6.92293 7.63346 6.84668 7.61821 6.7756 7.5886C6.70451 7.55898 6.64 7.51558 6.58577 7.46091L3.9141 4.78925C3.85987 4.73457 3.79535 4.69118 3.72427 4.66156C3.65319 4.63195 3.57694 4.6167 3.49993 4.6167C3.42293 4.6167 3.34668 4.63195 3.2756 4.66156C3.20451 4.69118 3.14 4.73457 3.08577 4.78925C2.97712 4.89854 2.91614 5.04639 2.91614 5.2005C2.91614 5.35461 2.97712 5.50245 3.08577 5.61175L5.76327 8.28924C6.09139 8.61696 6.53618 8.80103 6.99993 8.80103C7.46369 8.80103 7.90847 8.61696 8.2366 8.28924L10.9141 5.61175C11.0227 5.50245 11.0837 5.35461 11.0837 5.2005C11.0837 5.04639 11.0227 4.89854 10.9141 4.78925V4.78925Z" fill="#595F72"/>
</svg>
