<svg width="21" height="20" viewBox="0 0 21 20" xmlns="http://www.w3.org/2000/svg">
<g clip-path="url(#clip0_333_674)">
<path d="M15.0833 1.59717C14.145 1.61176 13.2271 1.87371 12.4223 2.35656C11.6176 2.83941 10.9545 3.52606 10.5 4.34717C10.0455 3.52606 9.38245 2.83941 8.5777 2.35656C7.77296 1.87371 6.85505 1.61176 5.91667 1.59717C4.42079 1.66216 3.01143 2.31655 1.99649 3.41736C0.981556 4.51818 0.443547 5.97594 0.500006 7.47217C0.500006 11.2613 4.48834 15.3997 7.83334 18.2055C8.58019 18.8331 9.52447 19.1772 10.5 19.1772C11.4755 19.1772 12.4198 18.8331 13.1667 18.2055C16.5117 15.3997 20.5 11.2613 20.5 7.47217C20.5565 5.97594 20.0185 4.51818 19.0035 3.41736C17.9886 2.31655 16.5792 1.66216 15.0833 1.59717ZM12.0958 16.9305C11.6492 17.3066 11.084 17.5129 10.5 17.5129C9.91605 17.5129 9.35085 17.3066 8.90417 16.9305C4.62251 13.338 2.16667 9.89133 2.16667 7.47217C2.10971 6.41776 2.47198 5.38361 3.17448 4.59525C3.87697 3.80689 4.8627 3.32829 5.91667 3.26383C6.97064 3.32829 7.95637 3.80689 8.65887 4.59525C9.36137 5.38361 9.72364 6.41776 9.66667 7.47217C9.66667 7.69318 9.75447 7.90514 9.91075 8.06142C10.067 8.2177 10.279 8.3055 10.5 8.3055C10.721 8.3055 10.933 8.2177 11.0893 8.06142C11.2455 7.90514 11.3333 7.69318 11.3333 7.47217C11.2764 6.41776 11.6386 5.38361 12.3411 4.59525C13.0436 3.80689 14.0294 3.32829 15.0833 3.26383C16.1373 3.32829 17.123 3.80689 17.8255 4.59525C18.528 5.38361 18.8903 6.41776 18.8333 7.47217C18.8333 9.89133 16.3775 13.338 12.0958 16.9272V16.9305Z" />
</g>
<defs>
<clipPath id="clip0_333_674">
<rect width="20" height="20" transform="translate(0.5)"/>
</clipPath>
</defs>
</svg>
