<svg width="112" height="71" viewBox="0 0 112 71" fill="none" xmlns="http://www.w3.org/2000/svg">
<g filter="url(#filter0_b_337_1131)">
<path fill-rule="evenodd" clip-rule="evenodd" d="M106.228 33.669C113.922 25.9748 113.926 13.4756 106.228 5.77687L106.223 5.77236C98.5289 -1.92187 86.0297 -1.92637 78.331 5.77236L75.9971 8.10626L73.669 5.77818C65.9748 -1.91605 53.4756 -1.92056 45.7769 5.77817L45.7724 5.78269C38.0781 13.4769 38.0736 25.9761 45.7724 33.6748L67.913 55.8154C71.6243 59.5268 77.2564 60.1514 81.6142 57.6893C82.4999 57.1901 83.3331 56.5636 84.087 55.8096L106.228 33.669Z" fill="white"/>
</g>
<path fill-rule="evenodd" clip-rule="evenodd" d="M55.1967 43.0997C67.2698 38.1256 75.9487 24.3587 75.9487 8.15413C75.9487 8.12217 75.9487 8.09023 75.9486 8.05829L73.669 5.77871C65.9748 -1.91552 53.4756 -1.92003 45.7769 5.77871L45.7724 5.78322C38.0781 13.4774 38.0736 25.9766 45.7724 33.6754L55.1967 43.0997Z" fill="url(#paint0_linear_337_1131)" fill-opacity="0.42"/>
<path d="M16.1468 26.7811C17.0449 24.0172 20.9551 24.0172 21.8532 26.7812L22.5922 29.0557C22.9938 30.2918 24.1457 31.1287 25.4454 31.1287H27.837C30.7432 31.1287 31.9515 34.8475 29.6004 36.5557L27.6655 37.9615C26.614 38.7254 26.1741 40.0795 26.5757 41.3156L27.3148 43.5902C28.2128 46.3541 25.0494 48.6525 22.6982 46.9443L20.7634 45.5385C19.7119 44.7746 18.2881 44.7746 17.2366 45.5385L15.3018 46.9443C12.9506 48.6525 9.78719 46.3541 10.6852 43.5902L11.4243 41.3156C11.8259 40.0795 11.386 38.7254 10.3345 37.9615L8.39962 36.5557C6.04848 34.8475 7.25681 31.1287 10.163 31.1287H12.5546C13.8543 31.1287 15.0062 30.2918 15.4078 29.0557L16.1468 26.7811Z" fill="white"/>
<path d="M37.3653 58.0312C37.8798 56.4476 40.1202 56.4476 40.6347 58.0312C40.8648 58.7394 41.5248 59.2188 42.2694 59.2188C43.9345 59.2188 44.6268 61.3496 43.2798 62.3283C42.6773 62.766 42.4252 63.5418 42.6553 64.25C43.1699 65.8336 41.3574 67.1504 40.0103 66.1717C39.4079 65.734 38.5921 65.734 37.9897 66.1717C36.6426 67.1504 34.8301 65.8336 35.3447 64.25C35.5748 63.5418 35.3227 62.766 34.7202 62.3283C33.3732 61.3496 34.0655 59.2188 35.7306 59.2188C36.4752 59.2188 37.1352 58.7394 37.3653 58.0312Z" fill="white"/>
<defs>
<filter id="filter0_b_337_1131" x="33.0026" y="-6.99737" width="85.9947" height="73.1569" filterUnits="userSpaceOnUse" color-interpolation-filters="sRGB">
<feFlood flood-opacity="0" result="BackgroundImageFix"/>
<feGaussianBlur in="BackgroundImageFix" stdDeviation="3.49869"/>
<feComposite in2="SourceAlpha" operator="in" result="effect1_backgroundBlur_337_1131"/>
<feBlend mode="normal" in="SourceGraphic" in2="effect1_backgroundBlur_337_1131" result="shape"/>
</filter>
<linearGradient id="paint0_linear_337_1131" x1="57.9743" y1="0.00634766" x2="57.9743" y2="43.0997" gradientUnits="userSpaceOnUse">
<stop stop-color="#21C389"/>
<stop offset="1" stop-color="#21C389" stop-opacity="0"/>
</linearGradient>
</defs>
</svg>
