<svg width="38" height="38" viewBox="0 0 38 38" fill="none" xmlns="http://www.w3.org/2000/svg">
<path d="M14.3559 15.573L16.8864 3.79143C16.9648 3.42659 17.2873 3.16602 17.6605 3.16602H26.0182C26.495 3.16602 26.8648 3.58398 26.7695 4.0511C25.5435 10.0576 19.7916 16.4822 19.7916 16.4822L20.8058 18.188C21.4354 19.2471 21.7425 20.467 21.6893 21.6981L21.375 28.9662L22.8344 30.7562C23.3977 31.447 23.5329 32.3927 23.1857 33.2136L23.1417 33.3179C22.6169 34.5592 21.143 35.0863 19.9501 34.4593C19.3349 34.1359 18.6283 34.0309 17.9456 34.1614L14.7931 34.764C14.6951 34.7826 14.5956 34.7921 14.4959 34.7921H11.875C11.0005 34.7921 10.2916 34.0832 10.2916 33.2087V32.2953H12.6666L17.8125 30.2147L14.4883 20.1188C14.3304 19.6395 14.25 19.138 14.25 18.6333V16.5705C14.25 16.2352 14.2854 15.9008 14.3559 15.573Z" fill="#21C389"/>
</svg>
