<svg width="16" height="16" viewBox="0 0 16 16" xmlns="http://www.w3.org/2000/svg">
<g clip-path="url(#clip0_606_1785)">
<path d="M7.99995 0.0273438C6.23591 0.0292845 4.54467 0.730861 3.29724 1.97816C2.04981 3.22547 1.34806 4.91664 1.34595 6.68068C1.34595 8.39401 2.67261 11.0753 5.28928 14.65C5.60079 15.0768 6.00865 15.4239 6.47968 15.6633C6.95071 15.9026 7.4716 16.0274 7.99995 16.0274C8.5283 16.0274 9.04918 15.9026 9.52021 15.6633C9.99124 15.4239 10.3991 15.0768 10.7106 14.65C13.3273 11.0753 14.6539 8.39401 14.6539 6.68068C14.6518 4.91664 13.9501 3.22547 12.7027 1.97816C11.4552 0.730861 9.76399 0.0292845 7.99995 0.0273438V0.0273438ZM7.99995 9.33268C7.47253 9.33268 6.95696 9.17628 6.51843 8.88326C6.0799 8.59025 5.7381 8.17377 5.53627 7.6865C5.33443 7.19923 5.28163 6.66305 5.38452 6.14577C5.48741 5.62849 5.74139 5.15333 6.11433 4.78039C6.48727 4.40745 6.96242 4.15348 7.47971 4.05058C7.99699 3.94769 8.53317 4.0005 9.02044 4.20233C9.50771 4.40417 9.92418 4.74596 10.2172 5.18449C10.5102 5.62302 10.6666 6.13859 10.6666 6.66601C10.6666 7.37326 10.3857 8.05153 9.88557 8.55163C9.38547 9.05173 8.70719 9.33268 7.99995 9.33268Z"/>
</g>
<defs>
<clipPath id="clip0_606_1785">
<rect width="16" height="16" />
</clipPath>
</defs>
</svg>
