<svg width="14" height="14" viewBox="0 0 14 14" fill="none" xmlns="http://www.w3.org/2000/svg">
<g clip-path="url(#clip0_606_1801)">
<path d="M13.331 0.669151C12.9345 0.273183 12.397 0.0507813 11.8365 0.0507812C11.2761 0.0507813 10.7386 0.273183 10.342 0.669151L0.854714 10.1565C0.583027 10.4266 0.367609 10.748 0.220921 11.1019C0.074234 11.4559 -0.000810082 11.8354 0.000130809 12.2186V13.4162C0.000130809 13.5709 0.061589 13.7192 0.170985 13.8286C0.280381 13.938 0.428755 13.9995 0.583464 13.9995H1.78105C2.16416 14.0006 2.54368 13.9256 2.89764 13.7791C3.2516 13.6325 3.57296 13.4171 3.84313 13.1455L13.331 3.65757C13.7268 3.26102 13.9491 2.72363 13.9491 2.16336C13.9491 1.60309 13.7268 1.0657 13.331 0.669151ZM3.0183 12.3207C2.6893 12.6475 2.24478 12.8315 1.78105 12.8328H1.1668V12.2186C1.16621 11.9887 1.21122 11.761 1.29924 11.5486C1.38725 11.3362 1.51651 11.1434 1.67955 10.9813L8.87963 3.78123L10.2213 5.1229L3.0183 12.3207ZM12.5056 2.83273L11.0438 4.29515L9.70213 2.9564L11.1645 1.49398C11.2526 1.40608 11.3572 1.33639 11.4722 1.28889C11.5872 1.24139 11.7105 1.21701 11.835 1.21715C11.9594 1.21728 12.0826 1.24193 12.1975 1.28968C12.3125 1.33743 12.4169 1.40735 12.5048 1.49544C12.5927 1.58354 12.6624 1.68808 12.7099 1.80311C12.7574 1.91814 12.7817 2.0414 12.7816 2.16585C12.7815 2.2903 12.7568 2.4135 12.7091 2.52843C12.6613 2.64335 12.5914 2.74775 12.5033 2.83565L12.5056 2.83273Z" fill="#595F72"/>
</g>
<defs>
<clipPath id="clip0_606_1801">
<rect width="14" height="14" fill="white"/>
</clipPath>
</defs>
</svg>
