<svg width="24" height="25" viewBox="0 0 24 25" fill="none" xmlns="http://www.w3.org/2000/svg">
<path d="M15.3998 10.8779L10.8098 6.28786C10.6224 6.10161 10.369 5.99707 10.1048 5.99707C9.84062 5.99707 9.58716 6.10161 9.3998 6.28786C9.30607 6.38083 9.23168 6.49143 9.18091 6.61329C9.13014 6.73515 9.104 6.86585 9.104 6.99786C9.104 7.12987 9.13014 7.26058 9.18091 7.38244C9.23168 7.5043 9.30607 7.6149 9.3998 7.70786L13.9998 12.2879C14.0935 12.3808 14.1679 12.4914 14.2187 12.6133C14.2695 12.7351 14.2956 12.8659 14.2956 12.9979C14.2956 13.1299 14.2695 13.2606 14.2187 13.3824C14.1679 13.5043 14.0935 13.6149 13.9998 13.7079L9.3998 18.2879C9.2115 18.4748 9.10518 18.729 9.10425 18.9943C9.10331 19.2597 9.20783 19.5146 9.3948 19.7029C9.58178 19.8912 9.8359 19.9975 10.1013 19.9984C10.3666 19.9994 10.6215 19.8948 10.8098 19.7079L15.3998 15.1179C15.9616 14.5554 16.2772 13.7929 16.2772 12.9979C16.2772 12.2029 15.9616 11.4404 15.3998 10.8779Z" fill="#595F72"/>
</svg>
