<svg width="32" height="32" viewBox="0 0 32 32" fill="none" xmlns="http://www.w3.org/2000/svg">
<path d="M13.8942 9.88947C13.7676 9.83625 13.6291 9.81786 13.493 9.83619C13.3569 9.85453 13.2282 9.90893 13.1202 9.99375L10.6972 11.8816C10.6766 12.1931 10.5788 12.5854 10.22 12.6093H9.70002C9.70002 12.6093 9.53002 12.9693 9.20002 12.8593C8.89944 12.7322 8.63244 12.5371 8.42002 12.2893C8.14002 11.9593 7.90002 11.4193 8.01002 11.1493C8.1937 10.8739 8.43194 10.639 8.71002 10.4593L9.41002 9.93933L11.6996 8.18494C12.1297 7.84763 12.6441 7.62977 13.1859 7.55678C13.7239 7.4843 14.2715 7.5558 14.7727 7.76385L18.0525 9.05981L17.7637 9.79078L18.1948 9.46228C19.1466 10.7114 20.555 11.532 22.1111 11.744C23.5599 11.9414 25.0264 11.5962 26.2316 10.7817C26.2902 10.498 26.4311 10.1229 26.7699 9.95931C26.8498 9.90421 26.9473 9.88085 27.0434 9.89379C27.1396 9.90673 27.2275 9.95505 27.2899 10.0293C27.2899 10.0293 27.4799 9.66931 27.8099 9.80931C28.1084 9.96221 28.3709 10.177 28.5799 10.4393C28.6984 10.6129 28.7753 10.8114 28.8048 11.0195C28.8343 11.2276 28.8155 11.4396 28.7499 11.6393C28.605 11.9006 28.4034 12.1261 28.1599 12.2993L27.7558 12.5216C26.0406 13.7705 23.9071 14.3099 21.8007 14.023C19.647 13.7296 17.697 12.5961 16.3762 10.8705L13.9057 9.8943L13.8942 9.88947Z" fill="#FFD7C2"/>
<path d="M14.0799 15.5693L14.5299 15.2793C14.4618 15.4068 14.4045 15.5388 14.3582 15.6739L18.625 19.2728L21.2933 19.2483L21.9499 19.8093C22.4238 20.4986 22.7787 21.2626 22.9999 22.0693L25.0999 27.6893L23.6899 28.6193L20.1299 22.3793L16.3706 19.5026L14.3599 22.3293C14.1326 22.6467 13.8174 22.8906 13.4531 23.031C13.0889 23.1714 12.6915 23.2021 12.3099 23.1193L6.10994 21.7293L6.71994 19.9993L12.1699 20.4793L14.2143 16.4598C14.2229 16.1928 14.2712 15.9279 14.3582 15.6739L14.0799 15.5693Z" fill="#FFD7C2"/>
<path d="M18.2699 7L17.2199 9.05L19.3199 10.15L20.3699 8.05L18.2699 7Z" fill="#F4C6AD"/>
<path d="M19.5248 8.41123C19.0757 8.16904 18.7067 7.81084 18.4598 7.37748L18.1098 6.09393L17.7098 4.76249C17.7125 4.29582 17.9072 3.84899 18.2517 3.519C18.5962 3.18901 19.0626 3.00252 19.5498 3H20.7498C20.9936 3 21.235 3.04615 21.4601 3.1358C21.6852 3.22545 21.8896 3.35684 22.0615 3.52241C22.2334 3.68797 22.3695 3.88446 22.4619 4.10056C22.5543 4.31667 22.6011 4.54813 22.5998 4.78164V5.49996C22.5998 5.49997 22.5998 5.49995 22.5998 5.49996C22.7546 5.78754 22.872 5.94446 22.9531 6.05273C23.0447 6.17527 23.0898 6.23553 23.0898 6.3525C23.0751 6.46677 23.0171 6.57187 22.9267 6.64782C22.8364 6.72376 22.72 6.76525 22.5998 6.76438C22.5986 6.76438 22.5973 6.76438 22.596 6.76436C22.5714 7.90545 22.3865 8.74724 20.9998 8.74724C20.485 8.76984 19.9739 8.65341 19.5248 8.41123Z" fill="#FFD7C2"/>
<path d="M4.63654 23.9119L7 21.7981L6.91532 19.9366L5.77081 19.5289C5.64909 19.4851 5.515 19.4913 5.39777 19.5459C5.28054 19.6006 5.18969 19.6994 5.14504 19.8208C5.14504 19.8208 4.05291 22.8156 3.88168 23.4515C3.81495 23.6661 4.43578 24.0899 4.63654 23.9119Z" fill="#533566"/>
<path d="M27.9998 27.1499H24.8098L23.6998 28.6599L24.2398 29.6599C24.2693 29.7171 24.3099 29.7678 24.3593 29.809C24.4087 29.8502 24.4659 29.8811 24.5275 29.8997C24.589 29.9184 24.6537 29.9245 24.7177 29.9176C24.7817 29.9108 24.8436 29.8912 24.8998 29.8599C24.8998 29.8599 27.6998 28.3599 28.2598 27.9999C28.4398 27.8799 28.2598 27.1499 27.9998 27.1499Z" fill="#533566"/>
<path d="M17.3599 18.2102L14.8599 21.6502L12.6199 20.2302C12.3584 20.0599 12.1735 19.7945 12.1044 19.4902C12.0353 19.1859 12.0875 18.8666 12.2499 18.6002L14.1799 15.4102L17.3599 18.2102Z" fill="#636363"/>
<path d="M21.3047 19.2382L18.7898 21.6998C18.6603 21.828 18.5046 21.9266 18.3334 21.9888C18.1622 22.0511 17.9795 22.0754 17.7979 22.0602C17.6163 22.045 17.4402 21.9906 17.2817 21.9007C17.1232 21.8109 16.9861 21.6877 16.8798 21.5398L14.5898 18.3498C14.5898 18.3498 13.5898 16.9098 13.9398 16.0098C14.0235 15.6449 14.1875 15.3033 14.4198 15.0098L19.2598 17.4898" fill="#9B9B9B"/>
<path opacity="0.51" d="M27.2072 10.0423C27.1615 10.0941 27.1665 10.1731 27.2183 10.2188C27.4167 10.3937 27.5886 10.5966 27.7286 10.821C27.7555 10.8932 27.7536 10.9481 27.7416 10.9888C27.7286 11.0324 27.7011 11.0695 27.6648 11.0981C27.6278 11.1272 27.5861 11.144 27.5531 11.1491C27.5363 11.1518 27.5269 11.1509 27.5228 11.1502C27.4258 11.0555 27.3333 10.9563 27.2457 10.853C27.2255 10.817 27.2047 10.7893 27.1853 10.7682C27.0848 10.6586 27.0023 10.6998 26.9646 10.7454C26.927 10.7909 26.9264 10.8566 26.9631 10.9028C26.9874 10.9334 27.0121 10.9636 27.0372 10.9936C27.0401 10.9995 27.043 11.0059 27.046 11.0128C27.0835 11.1007 27.1254 11.2748 27.1062 11.5976C27.1021 11.6665 27.1546 11.7257 27.2235 11.7298C27.2924 11.7339 27.3516 11.6814 27.3557 11.6125C27.3618 11.5105 27.3624 11.4199 27.3588 11.3393C27.4276 11.4029 27.5229 11.4069 27.5916 11.3962C27.6689 11.3841 27.7503 11.349 27.8196 11.2944C27.8896 11.2392 27.9514 11.1607 27.9813 11.0597C28.0116 10.9574 28.0062 10.8416 27.957 10.7186C27.9543 10.7119 27.9511 10.7054 27.9473 10.6993C27.7933 10.4501 27.6034 10.225 27.3836 10.0312C27.3501 10.0017 27.3052 9.99335 27.2653 10.0052C27.2436 10.0116 27.2233 10.0241 27.2072 10.0423Z" fill="#E5AF93"/>
<path d="M19.26 17.5197L14.08 15.5697C14.5533 14.7131 15.6001 12.6866 16.0007 11.4341C16.0394 9.25196 17.2698 8.69971 17.2698 8.69971C17.6638 8.55656 18.0886 8.52001 18.5013 8.59377C18.9139 8.66752 19.2998 8.84895 19.6198 9.11971C19.9062 9.3437 20.1391 9.62862 20.3017 9.95379C20.3812 10.1128 20.4429 10.2794 20.486 10.4507L20.49 10.4497C20.7951 11.6483 20.8432 12.8978 20.6312 14.1163C20.4192 15.3347 19.9519 16.4946 19.26 17.5197Z" fill="#FF6723"/>
<path d="M19.3499 5.14056C19.3499 5.14056 19.3499 4.19056 20.9099 4.19056C22.2399 4.19056 22.5999 3.73056 22.5799 3.00056C22.5904 2.86655 22.5718 2.73186 22.5253 2.60576C22.4787 2.47965 22.4054 2.36513 22.3104 2.27009C22.2153 2.17504 22.1008 2.10173 21.9747 2.0552C21.8486 2.00867 21.7139 1.99003 21.5799 2.00056C21.1295 2.00056 20.8854 2.06619 20.6812 2.12113C20.4137 2.19305 20.2145 2.24662 19.7099 2.11056C18.5099 1.76056 16.7099 1.96056 16.7099 3.96056C16.7099 6.43544 17.5378 6.65847 17.687 6.67856C17.6289 6.67485 17.5704 6.68126 17.5144 6.69757C17.451 6.71602 17.3918 6.74679 17.3402 6.78811C17.2887 6.82943 17.2458 6.8805 17.214 6.9384C17.1822 6.9963 17.1621 7.05989 17.1549 7.12556C17.1477 7.19122 17.1535 7.25766 17.1719 7.32108C17.1904 7.38451 17.2211 7.44368 17.2625 7.49522C17.3038 7.54675 17.3549 7.58965 17.4127 7.62145C17.4706 7.65325 17.5342 7.67333 17.5999 7.68056C17.649 7.68056 17.7059 7.68488 17.7675 7.68956C18.1454 7.71826 18.6999 7.76037 18.6999 6.90056C18.6999 6.71475 18.7061 6.54845 18.7173 6.39962C18.6601 6.33885 18.6133 6.26884 18.5791 6.1924C18.5358 6.09588 18.5134 5.99129 18.5134 5.8855C18.5134 5.77971 18.5358 5.67512 18.5791 5.57859C18.6224 5.48207 18.6856 5.39579 18.7646 5.32543C18.8436 5.25507 18.9366 5.20222 19.0374 5.17035C19.1319 5.1405 19.2313 5.12968 19.3298 5.13844C19.3405 5.13891 19.3479 5.14018 19.3499 5.14056C19.3497 5.14053 19.3501 5.14058 19.3499 5.14056Z" fill="#212121"/>
<path d="M21.4404 6.9908C21.3749 7.0126 21.3395 7.08338 21.3613 7.14888C21.4174 7.31757 21.5378 7.4573 21.6964 7.53772C21.8549 7.61815 22.0388 7.63277 22.2081 7.57842C22.2738 7.55732 22.31 7.48693 22.2889 7.4212C22.2678 7.35546 22.1974 7.31929 22.1317 7.34039C22.0251 7.37461 21.9093 7.3654 21.8095 7.31477C21.7097 7.26413 21.6338 7.17615 21.5985 7.06994C21.5767 7.00444 21.5059 6.96901 21.4404 6.9908Z" fill="#990838"/>
<path d="M22.1299 5.91085C22.1483 5.90958 22.1662 5.90469 22.1827 5.89645C22.1993 5.88822 22.214 5.87681 22.2261 5.86287C22.2381 5.84893 22.2473 5.83274 22.2531 5.81523C22.2589 5.79772 22.2612 5.77924 22.2599 5.76085C22.2573 5.6886 22.2405 5.61758 22.2104 5.55183C22.1804 5.48609 22.1377 5.42691 22.0847 5.37768C22.0318 5.32846 21.9697 5.29015 21.9019 5.26496C21.8342 5.23976 21.7621 5.22817 21.6899 5.23085C21.6176 5.22817 21.5456 5.23976 21.4778 5.26496C21.4101 5.29015 21.3479 5.32846 21.295 5.37768C21.2421 5.42691 21.1993 5.48609 21.1693 5.55183C21.1392 5.61758 21.1225 5.6886 21.1199 5.76085C21.1185 5.77924 21.1208 5.79772 21.1266 5.81523C21.1324 5.83274 21.1416 5.84893 21.1537 5.86287C21.1658 5.87681 21.1805 5.88822 21.197 5.89645C21.2135 5.90469 21.2315 5.90958 21.2499 5.91085H22.1299Z" fill="white"/>
<path d="M22.0273 4.53074C21.7146 4.48909 21.3975 4.5644 21.1368 4.74222C21.0775 4.78268 21.0623 4.86357 21.1027 4.92287C21.1432 4.98218 21.2241 4.99745 21.2834 4.95699C21.4911 4.81528 21.7438 4.75527 21.993 4.78846C22.0641 4.79794 22.1295 4.74793 22.139 4.67676C22.1485 4.6056 22.0985 4.54022 22.0273 4.53074Z" fill="#212121"/>
<path d="M21.5587 5.91003C21.5482 5.86687 21.5425 5.821 21.5425 5.77344C21.5425 5.51887 21.7044 5.3125 21.9041 5.3125C22.1038 5.3125 22.2656 5.51887 22.2656 5.77344C22.2656 5.821 22.26 5.86687 22.2495 5.91003H21.5587Z" fill="#7D4533"/>
<path d="M21.7386 5.91003C21.7266 5.87269 21.7199 5.83104 21.7199 5.78711C21.7199 5.62639 21.8097 5.49609 21.9205 5.49609C22.0313 5.49609 22.1211 5.62639 22.1211 5.78711C22.1211 5.83104 22.1144 5.87269 22.1024 5.91003H21.7386Z" fill="#1C1C1C"/>
<path d="M22.0899 5.67023C22.0513 5.67023 22.0199 5.62994 22.0199 5.58023C22.0199 5.53053 22.0513 5.49023 22.0899 5.49023C22.1286 5.49023 22.1599 5.53053 22.1599 5.58023C22.1599 5.62994 22.1286 5.67023 22.0899 5.67023Z" fill="white"/>
<path d="M17.6627 11.2563C18.4629 11.4707 19.2854 10.9958 19.4998 10.1956C19.7142 9.39544 19.2393 8.57294 18.4391 8.35853L15.0584 7.45266L14.2819 10.3504L17.6627 11.2563Z" fill="#FF8101"/>
</svg>
