<svg width="21" height="20" viewBox="0 0 21 20" xmlns="http://www.w3.org/2000/svg">
<g clip-path="url(#clip0_333_669)">
<path d="M19.8282 9.66701C19.3854 9.0757 18.7563 8.65089 18.0423 8.46117C18.3903 7.44967 18.6474 6.40916 18.8107 5.35201C18.864 4.96773 18.8274 4.57632 18.7038 4.20858C18.5802 3.84085 18.3729 3.50683 18.0982 3.23282C17.8235 2.95881 17.489 2.7523 17.121 2.62953C16.753 2.50676 16.3615 2.4711 15.9773 2.52534C15.8723 2.53951 15.5607 2.58534 15.1348 2.66784C15.3985 2.08405 15.5234 1.44714 15.4998 0.807008C15.4963 0.697573 15.4713 0.589899 15.4262 0.490135C15.3811 0.39037 15.3168 0.300468 15.2369 0.225562C15.157 0.150656 15.0632 0.0922133 14.9608 0.0535697C14.8583 0.0149261 14.7493 -0.00316104 14.6398 0.00034088C14.5304 0.0038428 14.4227 0.0288652 14.323 0.0739795C14.2232 0.119094 14.1333 0.183416 14.0584 0.263275C13.9835 0.343133 13.925 0.436963 13.8864 0.539408C13.8478 0.641853 13.8297 0.750906 13.8332 0.860341C13.8474 1.2629 13.7648 1.66299 13.5923 2.02701C13.4718 1.70172 13.2999 1.39786 13.0832 1.12701C12.7148 0.707755 12.2472 0.38755 11.7231 0.195677C11.199 0.0038038 10.6352 -0.0536141 10.0832 0.0286742C9.47791 0.0772584 8.89937 0.298838 8.41651 0.667008C7.87063 0.256335 7.21022 0.0261993 6.52734 0.00867423C5.66083 -0.0753087 4.79634 0.187482 4.12317 0.739508C3.78136 1.04382 3.50539 1.41481 3.31221 1.82968C3.11903 2.24455 3.01273 2.69455 2.99984 3.15201C2.97697 3.88452 3.19024 4.60498 3.60817 5.20701C3.09976 5.64292 2.70509 6.19605 2.45827 6.81861C2.21145 7.44118 2.1199 8.11447 2.19151 8.78034C1.53247 9.14759 1.01887 9.72922 0.736013 10.4286C0.45315 11.1281 0.418038 11.9032 0.636505 12.6253C1.20735 14.6116 2.26982 16.4218 3.72567 17.8887C5.12234 19.2505 6.99829 20.0089 8.94901 20.0003H12.0507C14.0012 20.0091 15.8769 19.2506 17.2732 17.8887C18.7296 16.4221 19.7924 14.6118 20.3632 12.6253C20.512 12.1248 20.541 11.5963 20.4481 11.0824C20.3552 10.5686 20.1428 10.0837 19.8282 9.66701ZM16.209 4.17534C16.338 4.15794 16.4692 4.17059 16.5925 4.2123C16.7157 4.25401 16.8277 4.32366 16.9196 4.4158C17.0115 4.50793 17.0808 4.62007 17.1222 4.74344C17.1636 4.86682 17.1759 4.99809 17.1582 5.12701C16.9834 6.22133 16.7001 7.29552 16.3123 8.33367H14.1782L15.2557 7.25617C15.4075 7.09901 15.4915 6.8885 15.4896 6.67001C15.4877 6.45151 15.4 6.2425 15.2455 6.08799C15.091 5.93349 14.882 5.84584 14.6635 5.84395C14.445 5.84205 14.2345 5.92604 14.0773 6.07784L11.8215 8.33367H10.5307C10.4698 7.89538 10.5116 7.44894 10.6527 7.02956C10.7939 6.61018 11.0305 6.22931 11.344 5.91701C11.6998 5.55784 13.064 4.58367 16.209 4.17534ZM4.66651 3.20784C4.67151 2.97842 4.72324 2.75243 4.81852 2.54367C4.9138 2.33492 5.05064 2.14777 5.22067 1.99367C5.56448 1.73954 5.9916 1.62466 6.41651 1.67201C6.62174 1.66357 6.82644 1.69863 7.01717 1.77489C7.20789 1.85116 7.38034 1.96689 7.52317 2.11451C7.63562 2.24014 7.7733 2.34064 7.92724 2.40942C8.08118 2.47821 8.2479 2.51373 8.41651 2.51367C8.58472 2.51284 8.75088 2.47665 8.90421 2.40746C9.05753 2.33826 9.1946 2.2376 9.30651 2.11201C9.43079 1.98053 9.57994 1.87505 9.74531 1.80166C9.91067 1.72828 10.089 1.68846 10.2698 1.68451C10.5453 1.63544 10.8286 1.65543 11.0945 1.74269C11.3603 1.82994 11.6004 1.98174 11.7932 2.18451C12.0462 2.50838 12.1782 2.91038 12.1665 3.32117C12.1665 3.37534 12.1665 3.49367 12.1665 3.49367C11.0603 3.89203 10.1153 4.64235 9.47651 5.62951C8.9503 5.00657 8.25015 4.55484 7.4657 4.33216C6.68125 4.10947 5.8482 4.12596 5.07317 4.37951C4.79663 4.05312 4.65164 3.63538 4.66651 3.20784ZM3.83317 8.33367C3.83317 7.67063 4.09656 7.03475 4.56541 6.56591C5.03425 6.09707 5.67013 5.83367 6.33317 5.83367C6.99621 5.83367 7.6321 6.09707 8.10094 6.56591C8.56978 7.03475 8.83317 7.67063 8.83317 8.33367H3.83317ZM18.7632 12.1578C18.2653 13.8721 17.3489 15.4357 16.0965 16.7078C15.0136 17.7599 13.5604 18.3439 12.0507 18.3337H8.94901C7.43882 18.3435 5.98523 17.7596 4.90151 16.7078C3.64908 15.4358 2.73269 13.8722 2.23484 12.1578C2.16013 11.9055 2.14564 11.6392 2.19253 11.3803C2.23942 11.1214 2.34639 10.8771 2.50484 10.667C2.65858 10.4596 2.85888 10.2913 3.0896 10.1755C3.32033 10.0597 3.57502 9.99968 3.83317 10.0003H17.1665C17.4255 9.9989 17.6812 10.0585 17.9128 10.1743C18.1445 10.2902 18.3456 10.4589 18.4998 10.667C18.6572 10.8777 18.7629 11.1222 18.8087 11.3811C18.8544 11.64 18.8388 11.906 18.7632 12.1578Z"/>
</g>
<defs>
<clipPath id="clip0_333_669">
<rect width="20" height="20" transform="translate(0.5)"/>
</clipPath>
</defs>
</svg>
