<svg width="8" height="8" viewBox="0 0 8 8" fill="none" xmlns="http://www.w3.org/2000/svg">
<g clip-path="url(#clip0_293_2022)">
<path d="M0.333333 1.58342H1.24533C1.31688 1.84666 1.47306 2.07905 1.68978 2.24473C1.90649 2.41041 2.17171 2.50017 2.4445 2.50017C2.71729 2.50017 2.98251 2.41041 3.19922 2.24473C3.41594 2.07905 3.57212 1.84666 3.64367 1.58342H7.66667C7.75507 1.58342 7.83986 1.5483 7.90237 1.48579C7.96488 1.42328 8 1.33849 8 1.25009C8 1.16168 7.96488 1.0769 7.90237 1.01438C7.83986 0.951872 7.75507 0.916753 7.66667 0.916753H3.64367C3.57212 0.653509 3.41594 0.421122 3.19922 0.255443C2.98251 0.0897637 2.71729 0 2.4445 0C2.17171 0 1.90649 0.0897637 1.68978 0.255443C1.47306 0.421122 1.31688 0.653509 1.24533 0.916753H0.333333C0.244928 0.916753 0.160143 0.951872 0.0976311 1.01438C0.035119 1.0769 0 1.16168 0 1.25009C0 1.33849 0.035119 1.42328 0.0976311 1.48579C0.160143 1.5483 0.244928 1.58342 0.333333 1.58342V1.58342ZM2.44433 0.666753C2.55971 0.666753 2.67249 0.700965 2.76842 0.765062C2.86434 0.82916 2.93911 0.920264 2.98326 1.02685C3.02741 1.13344 3.03897 1.25073 3.01646 1.36389C2.99395 1.47704 2.93839 1.58098 2.85681 1.66257C2.77523 1.74415 2.67129 1.7997 2.55814 1.82221C2.44498 1.84472 2.32769 1.83317 2.2211 1.78902C2.11451 1.74487 2.02341 1.6701 1.95931 1.57417C1.89521 1.47824 1.861 1.36546 1.861 1.25009C1.86118 1.09543 1.92269 0.94716 2.03205 0.837802C2.14141 0.728444 2.28968 0.666929 2.44433 0.666753V0.666753Z" fill="#595F72"/>
<path d="M7.66667 3.66659H6.75467C6.68324 3.40328 6.52712 3.17081 6.31042 3.00507C6.09372 2.83932 5.82849 2.74951 5.55567 2.74951C5.28285 2.74951 5.01761 2.83932 4.80091 3.00507C4.58421 3.17081 4.42809 3.40328 4.35667 3.66659H0.333333C0.244928 3.66659 0.160143 3.70171 0.0976311 3.76422C0.035119 3.82673 0 3.91152 0 3.99992C0 4.08833 0.035119 4.17311 0.0976311 4.23562C0.160143 4.29813 0.244928 4.33325 0.333333 4.33325H4.35667C4.42809 4.59656 4.58421 4.82903 4.80091 4.99478C5.01761 5.16052 5.28285 5.25033 5.55567 5.25033C5.82849 5.25033 6.09372 5.16052 6.31042 4.99478C6.52712 4.82903 6.68324 4.59656 6.75467 4.33325H7.66667C7.75507 4.33325 7.83986 4.29813 7.90237 4.23562C7.96488 4.17311 8 4.08833 8 3.99992C8 3.91152 7.96488 3.82673 7.90237 3.76422C7.83986 3.70171 7.75507 3.66659 7.66667 3.66659ZM5.55567 4.58325C5.44029 4.58325 5.32751 4.54904 5.23158 4.48494C5.13566 4.42085 5.06089 4.32974 5.01674 4.22315C4.97259 4.11656 4.96103 3.99927 4.98354 3.88612C5.00605 3.77296 5.06161 3.66902 5.14319 3.58744C5.22477 3.50586 5.32871 3.45031 5.44186 3.4278C5.55502 3.40529 5.67231 3.41684 5.7789 3.46099C5.88549 3.50514 5.97659 3.57991 6.04069 3.67584C6.10479 3.77177 6.139 3.88455 6.139 3.99992C6.13882 4.15458 6.07731 4.30285 5.96795 4.4122C5.85859 4.52156 5.71032 4.58308 5.55567 4.58325V4.58325Z" fill="#595F72"/>
<path d="M7.66667 6.41675H3.64367C3.57212 6.15351 3.41594 5.92112 3.19922 5.75544C2.98251 5.58976 2.71729 5.5 2.4445 5.5C2.17171 5.5 1.90649 5.58976 1.68978 5.75544C1.47306 5.92112 1.31688 6.15351 1.24533 6.41675H0.333333C0.244928 6.41675 0.160143 6.45187 0.0976311 6.51438C0.035119 6.57689 0 6.66168 0 6.75008C0 6.83849 0.035119 6.92327 0.0976311 6.98578C0.160143 7.0483 0.244928 7.08341 0.333333 7.08341H1.24533C1.31688 7.34666 1.47306 7.57904 1.68978 7.74472C1.90649 7.9104 2.17171 8.00016 2.4445 8.00016C2.71729 8.00016 2.98251 7.9104 3.19922 7.74472C3.41594 7.57904 3.57212 7.34666 3.64367 7.08341H7.66667C7.75507 7.08341 7.83986 7.0483 7.90237 6.98578C7.96488 6.92327 8 6.83849 8 6.75008C8 6.66168 7.96488 6.57689 7.90237 6.51438C7.83986 6.45187 7.75507 6.41675 7.66667 6.41675ZM2.44433 7.33341C2.32896 7.33341 2.21618 7.2992 2.12025 7.2351C2.02432 7.17101 1.94955 7.0799 1.9054 6.97331C1.86125 6.86672 1.8497 6.74943 1.87221 6.63628C1.89472 6.52312 1.95027 6.41918 2.03185 6.3376C2.11344 6.25602 2.21738 6.20047 2.33053 6.17796C2.44369 6.15545 2.56098 6.167 2.66757 6.21115C2.77416 6.25531 2.86526 6.33007 2.92936 6.426C2.99345 6.52193 3.02767 6.63471 3.02767 6.75008C3.0274 6.90471 2.96586 7.05293 2.85652 7.16227C2.74718 7.27161 2.59896 7.33315 2.44433 7.33341V7.33341Z" fill="#595F72"/>
</g>
<defs>
<clipPath id="clip0_293_2022">
<rect width="8" height="8" fill="white"/>
</clipPath>
</defs>
</svg>
